<svg id="Слой_1" data-name="Слой 1" xmlns="http://www.w3.org/2000/svg" viewBox="0 0 20.42 20.42"><defs><style>.cls-1{fill:#c5a950;}.cls-2,.cls-3,.cls-4{fill:none;stroke-linecap:round;stroke-miterlimit:10;}.cls-2{stroke:#a1934d;}.cls-3{stroke:#f40059;}.cls-4{stroke:#1400f4;}</style></defs><title>62B78387</title><circle class="cls-1" cx="10.21" cy="10.21" r="1.5"/><path class="cls-2" d="M1455.88,919.7a4.22,4.22,0,0,1,3.71,0" transform="translate(-1447.53 -913.29)"/><path class="cls-2" d="M1453.94,925.36a4.22,4.22,0,0,1,0-3.71" transform="translate(-1447.53 -913.29)"/><path class="cls-2" d="M1459.59,927.31a4.17,4.17,0,0,1-3.71,0" transform="translate(-1447.53 -913.29)"/><path class="cls-2" d="M1461.55,921.64a4.27,4.27,0,0,1,.43,1.86,4.14,4.14,0,0,1-.44,1.86" transform="translate(-1447.53 -913.29)"/><path class="cls-3" d="M1454.66,917.21a6.83,6.83,0,0,1,3-.68,7,7,0,0,1,3.13.74" transform="translate(-1447.53 -913.29)"/><path class="cls-3" d="M1451.41,926.59a6.88,6.88,0,0,1,0-6.17" transform="translate(-1447.53 -913.29)"/><path class="cls-3" d="M1460.77,929.73a7,7,0,0,1-6.1.07" transform="translate(-1447.53 -913.29)"/><path class="cls-3" d="M1463.92,920.48a6.86,6.86,0,0,1,0,6" transform="translate(-1447.53 -913.29)"/><path class="cls-4" d="M1453.47,914.78a9.73,9.73,0,0,1,8.53,0" transform="translate(-1447.53 -913.29)"/><path class="cls-4" d="M1449,927.76a9.68,9.68,0,0,1,0-8.51" transform="translate(-1447.53 -913.29)"/><path class="cls-4" d="M1462,932.23a9.73,9.73,0,0,1-8.51,0" transform="translate(-1447.53 -913.29)"/><path class="cls-4" d="M1466.47,919.25a9.7,9.7,0,0,1,0,8.52" transform="translate(-1447.53 -913.29)"/></svg>