<svg xmlns="http://www.w3.org/2000/svg" viewBox="0 0 102 32"><defs><style>.cls-1{fill:#353535;}.cls-2{fill:#f5f5f5;}</style></defs><title>Ресурс 5</title><g id="Слой_2" data-name="Слой 2"><g id="Слой_1-2" data-name="Слой 1"><g id="Style_3_copy" data-name="Style 3 copy"><path class="cls-1" d="M16,0A16,16,0,1,0,32,16,16,16,0,0,0,16,0Z"/><path class="cls-2" d="M19.73,21.6v3.1a1.25,1.25,0,0,1-2.49,0V21.6H14.76v3.1a1.25,1.25,0,0,1-2.49,0V21.6H11V12.28H21V21.6Z"/><path class="cls-2" d="M24.07,12.9v5a1.24,1.24,0,0,1-2.48,0v-5a1.24,1.24,0,0,1,2.48,0Z"/><path class="cls-2" d="M14.76,9.18a.62.62,0,0,0-.62-.62.61.61,0,0,0-.62.62.62.62,0,0,0,.62.62A.62.62,0,0,0,14.76,9.18Zm3.72,0a.61.61,0,0,0-.62-.62.62.62,0,0,0-.62.62.62.62,0,0,0,.62.62A.62.62,0,0,0,18.48,9.18Zm.45-1.52a5,5,0,0,1,2,4H11a5,5,0,0,1,2-4l-.64-1.11a.31.31,0,0,1,.11-.42.32.32,0,0,1,.43.11l.62,1.08a4.92,4.92,0,0,1,4.82,0L19,6.24a.31.31,0,0,1,.43-.11.3.3,0,0,1,.11.42Z"/><path class="cls-2" d="M10.41,12.9v5a1.24,1.24,0,0,1-2.48,0v-5a1.24,1.24,0,1,1,2.48,0Z"/></g><g id="Style_3_copy-2" data-name="Style 3 copy"><path class="cls-1" d="M51,0A16,16,0,1,0,67,16,16,16,0,0,0,51,0Z"/><path class="cls-2" d="M58.87,19.2c0,.07,0,.15,0,.25,0,2-2.18,5-4.55,5-1,0-2-.72-3.09-.72-1.25,0-2.29.79-3.18.79-1.22,0-2.31-1-3.2-2.65a14.24,14.24,0,0,1-1.76-6.37,5.55,5.55,0,0,1,5.38-5.46c1.3,0,1.79,1,3,1,1.51,0,2.42-1,3.51-1a4.25,4.25,0,0,1,3.33,1.84l0,0a4,4,0,0,0-1.77,3.42,4,4,0,0,0,2.37,3.76Z"/><path class="cls-2" d="M54.78,6a6.23,6.23,0,0,1,0,.67,4.32,4.32,0,0,1-3.4,4.11v-.1a4.47,4.47,0,0,1-.08-.74,4.25,4.25,0,0,1,3.41-4Z"/></g><g id="Style_3_copy-3" data-name="Style 3 copy"><path class="cls-1" d="M86,0A16,16,0,0,0,70,16c0,8.84,6.16,16,15,16s17-7.16,17-16A16,16,0,0,0,86,0Z"/><polygon class="cls-2" points="85.47 8.9 94.42 7.59 94.42 15.48 85.47 15.48 85.47 8.9"/><polygon class="cls-2" points="75.58 16.54 84.42 16.54 84.42 22.95 75.58 21.95 75.58 16.54"/><polygon class="cls-2" points="75.58 10.06 84.42 9.06 84.42 15.48 75.58 15.48 75.58 10.06"/><polygon class="cls-2" points="85.47 16.54 94.42 16.54 94.42 24.43 85.47 23.11 85.47 16.54"/></g></g></g></svg>