<svg version="1.1" xmlns="http://www.w3.org/2000/svg" xmlns:xlink="http://www.w3.org/1999/xlink">
	<symbol id='ico-androind' viewBox='0 0 32 32'>
		<g id="">
			<g>
				<path d="M16,0C7.163,0,0,7.163,0,16c0,8.836,7.163,16,16,16s16-7.164,16-16C32,7.163,24.837,0,16,0z"/>
			</g>
			<g>
				<path d="M9.17,11.652c-0.685,0-1.242,0.556-1.242,1.242v4.967c0,0.685,0.556,1.242,1.242,1.242    s1.242-0.556,1.242-1.242v-4.967C10.412,12.208,9.855,11.652,9.17,11.652z" fill="#0BA4E0"/>
				<path d="M22.83,11.652c-0.685,0-1.242,0.556-1.242,1.242v4.967c0,0.685,0.556,1.242,1.242,1.242    s1.242-0.556,1.242-1.242v-4.967C24.072,12.208,23.516,11.652,22.83,11.652z" fill="#0BA4E0"/>
				<path d="M11.033,21.587h1.242v3.105c0,0.685,0.556,1.242,1.242,1.242s1.242-0.556,1.242-1.242v-3.105h2.484v3.105    c0,0.685,0.556,1.242,1.242,1.242s1.242-0.556,1.242-1.242v-3.105h1.242v-9.314h-9.935V21.587z" fill="#0BA4E0"/>
				<path d="M18.933,7.649l0.638-1.105c0.086-0.149,0.035-0.338-0.114-0.425c-0.148-0.086-0.338-0.035-0.424,0.114    L18.41,7.31C17.696,6.913,16.875,6.685,16,6.685c-0.875,0-1.696,0.228-2.41,0.626l-0.622-1.078    c-0.086-0.148-0.275-0.199-0.425-0.114c-0.148,0.086-0.199,0.275-0.114,0.424l0.638,1.105c-1.231,0.904-2.035,2.358-2.035,4.004    h9.935C20.967,10.007,20.164,8.553,18.933,7.649z M14.137,9.789c-0.343,0-0.621-0.278-0.621-0.621    c0-0.343,0.278-0.621,0.621-0.621c0.343,0,0.621,0.278,0.621,0.621C14.758,9.512,14.481,9.789,14.137,9.789z M17.863,9.789    c-0.343,0-0.621-0.278-0.621-0.621c0-0.343,0.278-0.621,0.621-0.621s0.621,0.278,0.621,0.621    C18.484,9.512,18.206,9.789,17.863,9.789z" fill="#0BA4E0"/>
			</g>
		</g>
	</symbol>
	<symbol id='ico-apple' viewBox='0 0 32 32'>
		<g id="">
			<g>
				<path d="M16-0.005c-8.837,0-16,7.163-16,16c0,8.836,7.163,16,16,16s16-7.164,16-16C32,7.158,24.837-0.005,16-0.005z"/>
			</g>
			<g>
				<path d="M23.866,19.187V19.06c-1.534-0.818-2.366-2.019-2.366-3.757c0-1.405,0.624-2.632,1.768-3.424l0.052-0.026    c-0.754-0.92-1.768-1.839-3.329-1.839c-1.092,0-2.002,1.048-3.51,1.048c-1.196,0-1.691-0.997-2.991-0.997    c-2.704,0-5.383,2.376-5.383,5.468c0,1.636,0.546,4.166,1.768,6.363c0.884,1.61,1.976,2.658,3.199,2.658    c0.884,0,1.924-0.792,3.173-0.792c1.092,0,2.107,0.716,3.094,0.716c2.367,0,4.551-3.015,4.551-5.033    C23.892,19.341,23.866,19.264,23.866,19.187z" fill="#0BA4E0"/>
				<path d="M16.427,10.731c1.768-0.537,3.407-1.84,3.407-4.114c0-0.179-0.026-0.409-0.052-0.664l-0.026-0.102    c-1.794,0.485-3.406,1.865-3.406,4.037c0,0.205,0.026,0.46,0.078,0.741L16.427,10.731L16.427,10.731z" fill="#0BA4E0"/>
			</g>
		</g>
	</symbol>
	<symbol id='ico-windows' viewBox='0 0 32 32'>
	<g id="">
		<g>
			<path d="M16.005,0c-8.837,0-16,7.163-16,16c0,8.836,7.163,16,16,16s16-7.164,16-16C32.005,7.163,24.842,0,16.005,0z"/>
		</g>
		<g>
			<polygon fill="#0BA4E0" points="14.474,8.903 23.417,7.588 23.417,15.479 14.474,15.479   "/>
			<polygon fill="#0BA4E0" points="6.583,10.062 13.422,9.059 13.422,15.479 6.583,15.479   "/>
			<polygon fill="#0BA4E0" points="14.474,23.107 23.417,24.422 23.417,16.531 14.474,16.531   "/>
			<polygon fill="#0BA4E0" points="6.583,21.948 13.422,22.951 13.422,16.531 6.583,16.531   "/>
		</g>
	</g>
	</symbol>

</svg>