<svg xmlns="http://www.w3.org/2000/svg" viewBox="0 0 102.36 34"><defs><style>.cls-1{fill:#353535;}.cls-2{fill:#f5f5f5;}</style></defs><title>Ресурс 6</title><g id="Слой_2" data-name="Слой 2"><g id="Слой_1-2" data-name="Слой 1"><g id="Style_3_copy" data-name="Style 3 copy"><path class="cls-1" d="M17,0A17,17,0,1,0,34,17,17,17,0,0,0,17,0Z"/><path class="cls-2" d="M22.28,13v9.9H21v3.29a1.32,1.32,0,0,1-2.65,0V22.94H15.68v3.29a1.32,1.32,0,0,1-2.65,0V22.94H11.72V13Z"/><path class="cls-2" d="M25.57,13.7V19a1.32,1.32,0,1,1-2.63,0V13.7a1.32,1.32,0,0,1,2.63,0Z"/><path class="cls-2" d="M22.28,12.38H11.72a5.27,5.27,0,0,1,2.17-4.25L13.2,7a.33.33,0,0,1,.12-.45.34.34,0,0,1,.46.12l.66,1.15a5.23,5.23,0,0,1,5.12,0l.66-1.15a.33.33,0,0,1,.46-.12.32.32,0,0,1,.12.45l-.68,1.18A5.27,5.27,0,0,1,22.28,12.38ZM19.63,9.75A.65.65,0,0,0,19,9.09a.66.66,0,0,0-.66.66.66.66,0,0,0,.66.66A.66.66,0,0,0,19.63,9.75Zm-4,0A.66.66,0,0,0,15,9.09a.65.65,0,0,0-.66.66.66.66,0,0,0,.66.66A.66.66,0,0,0,15.68,9.75Z"/><path class="cls-2" d="M11.06,13.7V19a1.32,1.32,0,1,1-2.63,0V13.7a1.32,1.32,0,0,1,2.63,0Z"/></g><g id="Style_3_copy-2" data-name="Style 3 copy"><path class="cls-1" d="M51.18,0a17,17,0,1,0,17,17A17,17,0,0,0,51.18,0Z"/><path class="cls-2" d="M59.54,20.39c0,.07,0,.16,0,.27,0,2.15-2.32,5.35-4.83,5.35-1.05,0-2.12-.76-3.28-.76-1.33,0-2.43.84-3.38.84-1.3,0-2.45-1.1-3.4-2.82A15.13,15.13,0,0,1,42.8,16.5a5.9,5.9,0,0,1,5.72-5.8c1.38,0,1.9,1.05,3.18,1.05,1.6,0,2.57-1.12,3.73-1.12a4.51,4.51,0,0,1,3.54,2l-.05,0A4.29,4.29,0,0,0,57,16.26a4.26,4.26,0,0,0,2.52,4Z"/><path class="cls-2" d="M55.19,6.33a6.62,6.62,0,0,1,.05.71,4.58,4.58,0,0,1-3.61,4.37V11.3a4.75,4.75,0,0,1-.08-.79,4.51,4.51,0,0,1,3.62-4.29Z"/></g><g id="Style_3_copy-3" data-name="Style 3 copy"><path class="cls-1" d="M85.37,0a17,17,0,0,0-17,17c0,9.39,6.55,17,15.94,17s18.06-7.61,18.06-17A17,17,0,0,0,85.37,0Z"/><polygon class="cls-2" points="84.8 9.46 94.31 8.07 94.31 16.45 84.8 16.45 84.8 9.46"/><polygon class="cls-2" points="74.29 17.57 83.68 17.57 83.68 24.39 74.29 23.32 74.29 17.57"/><polygon class="cls-2" points="74.29 10.69 83.68 9.63 83.68 16.45 74.29 16.45 74.29 10.69"/><polygon class="cls-2" points="84.8 17.57 94.31 17.57 94.31 25.95 84.8 24.56 84.8 17.57"/></g></g></g></svg>